<svg width="28" height="29" viewBox="0 0 28 29" fill="none" xmlns="http://www.w3.org/2000/svg">
<path d="M22.75 25.005C23.7193 25.005 24.505 24.2193 24.505 23.25C24.505 22.2807 23.7193 21.495 22.75 21.495C21.7808 21.495 20.995 22.2807 20.995 23.25C20.995 24.2193 21.7808 25.005 22.75 25.005Z" fill="#DE3B40"/>
<path d="M19.855 7.3864L10.495 2.8L10.495 23.86H8.155L8.155 21.8359C6.0607 22.2454 4.645 22.9942 4.645 23.86C4.645 25.147 7.7923 26.2 11.665 26.2C15.5377 26.2 18.685 25.147 18.685 23.86C18.685 22.7017 16.1578 21.7423 12.835 21.5551L12.835 10.9666L19.855 7.3864Z" fill="#DE3B40"/>
</svg>
