<svg width="24" height="25" viewBox="0 0 24 25" fill="none" xmlns="http://www.w3.org/2000/svg">
<path d="M12 0.800003C5.5416 0.800003 0.299999 6.0416 0.299999 12.5C0.299999 18.9584 5.5416 24.2 12 24.2C18.4584 24.2 23.7 18.9584 23.7 12.5C23.7 6.0416 18.4584 0.800003 12 0.800003ZM2.64 12.5C2.64 7.3286 6.8286 3.14 12 3.14C14.1645 3.14 16.1535 3.8771 17.733 5.1173L4.6173 18.233C3.33237 16.5987 2.63577 14.579 2.64 12.5ZM12 21.86C9.8355 21.86 7.8465 21.1229 6.267 19.8827L19.3827 6.767C20.6676 8.40133 21.3642 10.421 21.36 12.5C21.36 17.6714 17.1714 21.86 12 21.86Z" fill="#F098B4"/>
</svg>
