<svg width="24" height="25" viewBox="0 0 24 25" fill="none" xmlns="http://www.w3.org/2000/svg">
<path d="M12 0.800003C5.565 0.800003 0.299999 6.065 0.299999 12.5C0.299999 18.935 5.565 24.2 12 24.2C18.435 24.2 23.7 18.935 23.7 12.5C23.7 6.065 18.435 0.800003 12 0.800003ZM12 21.86C6.8403 21.86 2.64 17.6597 2.64 12.5C2.64 7.3403 6.8403 3.14 12 3.14C17.1597 3.14 21.36 7.3403 21.36 12.5C21.36 17.6597 17.1597 21.86 12 21.86ZM6.15 16.01L17.85 16.01V18.35L6.15 18.35L6.15 16.01ZM10.011 11.564L7.788 9.341L6.15 10.979L10.011 14.84L17.85 7.001L16.212 5.363L10.011 11.564Z" fill="#4CE77F"/>
</svg>
