<svg width="24" height="25" viewBox="0 0 24 25" fill="none" xmlns="http://www.w3.org/2000/svg">
<path d="M23 22.5C21.1584 22.5045 19.4189 21.655 18.29 20.2C18.0934 19.9691 17.8053 19.836 17.502 19.836C17.1987 19.836 16.9106 19.9691 16.714 20.2C15.6043 21.6175 13.9168 22.4618 12.117 22.5H11.907C11.697 22.496 11.4867 22.4813 11.276 22.456C9.69863 22.267 8.26251 21.4546 7.288 20.2C7.09098 19.9697 6.80308 19.8371 6.5 19.8371C6.19692 19.8371 5.90902 19.9697 5.712 20.2C4.58272 21.6556 2.84226 22.5051 1 22.5C0.447715 22.5 0 22.9477 0 23.5C0 24.0523 0.447715 24.5 1 24.5L23 24.5C23.5523 24.5 24 24.0523 24 23.5C24 22.9477 23.5523 22.5 23 22.5Z" fill="#EA916E"/>
<path d="M4 0.5L1 0.5C0.447715 0.5 0 0.947715 0 1.5L0 17.5C0 18.0523 0.447715 18.5 1 18.5H4C4.55228 18.5 5 18.0523 5 17.5L5 1.5C5 0.947715 4.55228 0.5 4 0.5Z" fill="#EA916E"/>
<path d="M23 0.5L20 0.5C19.4477 0.5 19 0.947715 19 1.5L19 17.5C19 18.0523 19.4477 18.5 20 18.5H23C23.5523 18.5 24 18.0523 24 17.5L24 1.5C24 0.947715 23.5523 0.5 23 0.5Z" fill="#EA916E"/>
<path d="M7 14.5L17 14.5V7.42101C15.6764 8.75178 13.8769 9.50001 12 9.50001C10.1231 9.50001 8.32359 8.75178 7 7.42101L7 14.5Z" fill="#EA916E"/>
</svg>
