<svg width="24" height="25" viewBox="0 0 24 25" fill="none" xmlns="http://www.w3.org/2000/svg">
<path d="M18 12.5C14.6914 12.5 12 9.80859 12 6.5C12 3.19141 14.6914 0.5 18 0.5C21.3086 0.5 24 3.19141 24 6.5C24 9.80859 21.3086 12.5 18 12.5ZM18 2.5C15.7944 2.5 14 4.29443 14 6.5C14 8.70557 15.7944 10.5 18 10.5C20.2056 10.5 22 8.70557 22 6.5C22 4.29443 20.2056 2.5 18 2.5Z" fill="#EFB034"/>
<path d="M20 7.5L18 7.5C17.4477 7.5 17 7.05225 17 6.5V4.5C17 3.94775 17.4477 3.5 18 3.5C18.5523 3.5 19 3.94775 19 4.5V5.5L20 5.5C20.5522 5.5 21 5.94775 21 6.5C21 7.05225 20.5522 7.5 20 7.5Z" fill="#EFB034"/>
<path d="M5 4.5C2.24316 4.5 0 6.74316 0 9.5L0 23.5C0 24.0522 0.44775 24.5 1 24.5L9 24.5C9.55225 24.5 10 24.0522 10 23.5L10 9.5C10 6.74316 7.75684 4.5 5 4.5ZM8 10.5C7.3717 10.7441 6.33813 11.0576 5.03125 11.0625C3.69189 11.0676 2.63428 10.7465 2 10.5C2 10.1666 2 9.83331 2 9.5C2 7.84314 3.34314 6.5 5 6.5C6.65686 6.5 8 7.84314 8 9.5L8 10.5Z" fill="#EFB034"/>
</svg>
