<svg width="24" height="25" viewBox="0 0 24 25" fill="none" xmlns="http://www.w3.org/2000/svg">
<path d="M10 24.5C4.486 24.5 0 20.014 0 14.5C0 8.986 4.486 4.5 10 4.5C10.375 4.5 10.746 4.521 11.109 4.561L12.103 4.67L11.884 6.658L10.89 6.549C10.598 6.517 10.301 6.5 10 6.5C5.589 6.5 2 10.089 2 14.5C2 18.911 5.589 22.5 10 22.5C14.411 22.5 18 18.911 18 14.5C18 14.199 17.983 13.901 17.951 13.609L17.842 12.615L19.83 12.396L19.939 13.39C19.979 13.755 20 14.125 20 14.5C20 20.014 15.514 24.5 10 24.5Z" fill="#7F55E0"/>
<path d="M10 20.5C6.691 20.5 4 17.809 4 14.5C4 11.191 6.691 8.5 10 8.5C13.309 8.5 16 11.191 16 14.5C16 17.809 13.309 20.5 10 20.5ZM10 10.5C7.794 10.5 6 12.294 6 14.5C6 16.706 7.794 18.5 10 18.5C12.206 18.5 14 16.706 14 14.5C14 12.294 12.206 10.5 10 10.5Z" fill="#7F55E0"/>
<path d="M19.27 10.645L23.851 6.063L20.851 5.063L22.707 3.207L21.293 1.793L19.437 3.649L18.437 0.649002L13.856 5.23L14.856 8.231L10.512 12.575C10.347 12.531 10.178 12.5 10 12.5C8.895 12.5 8 13.395 8 14.5C8 15.605 8.895 16.5 10 16.5C11.105 16.5 12 15.605 12 14.5C12 14.322 11.969 14.153 11.926 13.988L16.27 9.644L19.27 10.645Z" fill="#7F55E0"/>
</svg>
