<svg width="22" height="22" viewBox="0 0 22 22" fill="none" xmlns="http://www.w3.org/2000/svg">
<path d="M15.8153 11.5C12.6052 11.5 9.99993 13.8262 9.99993 16.6923C9.99993 19.5585 12.6052 21.8846 15.8153 21.8846C19.0254 21.8846 21.6307 19.5585 21.6307 16.6923C21.6307 13.8262 19.0254 11.5 15.8153 11.5ZM17.7344 19.1327L15.2338 16.9V13.5769H16.3969V16.4742L18.5485 18.3954L17.7344 19.1327ZM16.9784 2.15384L13.2798 2.15384C12.7913 0.949227 11.5119 0.0769196 9.99993 0.0769196C8.48793 0.0769196 7.20854 0.949227 6.72005 2.15384L3.02147 2.15384C1.74208 2.15384 0.695312 3.08846 0.695312 4.23077L0.695312 19.8077C0.695312 20.95 1.74208 21.8846 3.02147 21.8846L10.1279 21.8846C9.43976 21.2883 8.87998 20.5843 8.4763 19.8077L3.02147 19.8077L3.02147 4.23077H5.34762L5.34762 7.34615L14.6522 7.34615V4.23077H16.9784L16.9784 9.50615C17.8042 9.61 18.5834 9.82807 19.3045 10.1292L19.3045 4.23077C19.3045 3.08846 18.2578 2.15384 16.9784 2.15384ZM9.99993 4.23077C9.36024 4.23077 8.83685 3.76346 8.83685 3.1923C8.83685 2.62115 9.36024 2.15384 9.99993 2.15384C10.6396 2.15384 11.163 2.62115 11.163 3.1923C11.163 3.76346 10.6396 4.23077 9.99993 4.23077Z" fill="#DE3B40"/>
</svg>
